<svg fill="#000000" xmlns="http://www.w3.org/2000/svg"  viewBox="0 0 50 50" width="50px" height="50px"><path fill="none" stroke="#000000" stroke-miterlimit="10" stroke-width="2" d="M16,46h18c6.6,0,12-5.4,12-12V16c0-6.6-5.4-12-12-12H16C9.4,4,4,9.4,4,16v18C4,40.6,9.4,46,16,46z"/><path fill="none" stroke="#000000" stroke-miterlimit="10" stroke-width="2" d="M25,15c-5.5,0-10,4.5-10,10s4.5,10,10,10s10-4.5,10-10S30.5,15,25,15z"/><path d="M37,11c-1.1,0-2,0.9-2,2s0.9,2,2,2s2-0.9,2-2S38.1,11,37,11z"/></svg>